<?xml version="1.0" encoding="utf-8"?>
<!-- Generator: Adobe Illustrator 24.1.2, SVG Export Plug-In . SVG Version: 6.00 Build 0)  -->
<svg version="1.1" id="圖層_1" xmlns="http://www.w3.org/2000/svg" xmlns:xlink="http://www.w3.org/1999/xlink" x="0px" y="0px"
	 viewBox="0 0 36 24" style="enable-background:new 0 0 36 24;" xml:space="preserve">
<style type="text/css">
	.st0{fill:#FFFFFF;}
</style>
<path class="st0" d="M31.3,13.8h-1.7c0,0-0.1-0.1-0.1-0.1L23,7.2V2.5C23,1.1,21.9,0,20.5,0h-5.1c-1.4,0-2.5,1.1-2.5,2.5v4.7
	l-6.4,6.5H4.7c-1.4,0-2.5,1.1-2.5,2.5v5.1c0,1.4,1.1,2.5,2.5,2.5h5.1c1.4,0,2.5-1.1,2.5-2.5v-5.1c0-1.4-1.1-2.5-2.5-2.5H9.3l4.4-4.5
	c0.5,0.5,1.1,0.8,1.8,0.8h1.6v3.5h-1.6c-1.4,0-2.5,1.1-2.5,2.5v5.1c0,1.4,1.1,2.5,2.5,2.5h5.1c1.4,0,2.5-1.1,2.5-2.5v-5.1
	c0-1.4-1.1-2.5-2.5-2.5h-1.6v-3.5h1.6c0.7,0,1.4-0.3,1.9-0.8l4.5,4.5h-0.8c-1.4,0-2.5,1.1-2.5,2.5v5.1c0,1.4,1.1,2.5,2.5,2.5h5.1
	c1.4,0,2.5-1.1,2.5-2.5v-5.1C33.9,15,32.7,13.8,31.3,13.8z M14.9,16.3c0-0.3,0.3-0.5,0.5-0.5h5.1c0.3,0,0.6,0.3,0.6,0.5v5.1
	c0,0.3-0.3,0.5-0.6,0.5h-5.1c-0.3,0-0.5-0.3-0.5-0.5V16.3z M14.9,2.5c0-0.3,0.3-0.5,0.5-0.5h5.1c0.3,0,0.6,0.3,0.6,0.5v5.1
	c0,0.3-0.3,0.5-0.6,0.5h-5.1c-0.3,0-0.5-0.3-0.5-0.5V2.5z M10.4,21.5c0,0.3-0.3,0.5-0.5,0.5H4.7l-0.1,0c-0.1,0-0.2,0-0.2-0.1
	c-0.1-0.1-0.2-0.2-0.2-0.4v-5.1c0-0.3,0.3-0.6,0.5-0.6l5.2,0c0,0,0.1,0,0.1,0c0.1,0,0.1,0,0.2,0.1c0.1,0.1,0.2,0.2,0.2,0.4V21.5z
	 M31.9,16.3v5.1c0,0.3-0.3,0.5-0.5,0.5h-5.1c-0.3,0-0.5-0.3-0.5-0.5v-5.1c0-0.3,0.3-0.5,0.5-0.5h5.1C31.6,15.8,31.9,16.1,31.9,16.3z
	"/>
</svg>
