<?xml version="1.0" encoding="utf-8"?>
<!-- Generator: Adobe Illustrator 24.1.2, SVG Export Plug-In . SVG Version: 6.00 Build 0)  -->
<svg version="1.1" id="圖層_1" xmlns="http://www.w3.org/2000/svg" xmlns:xlink="http://www.w3.org/1999/xlink" x="0px" y="0px"
	 viewBox="0 0 36 24" style="enable-background:new 0 0 36 24;" xml:space="preserve">
<style type="text/css">
	.st0{fill:#FFFFFF;}
</style>
<g transform="translate(0,-952.36218)">
	<path class="st0" d="M3.1,954.1c-0.6,0-1.1,0.5-1.1,1.1v18.3c0,0.6,0.5,1.1,1.1,1.1h29.7c0.6,0,1.1-0.5,1.1-1.1v-18.3
		c0-0.6-0.5-1.1-1.1-1.1H3.1z M3.5,955.5h29v1.1L18.1,967L3.5,956.6V955.5L3.5,955.5z M3.5,958.5l8.3,6l-8.3,7.6
		C3.5,972.1,3.5,958.5,3.5,958.5z M32.6,958.5v13.7l-8.3-7.6L32.6,958.5z M13.1,965.3l4.5,3.3c0.3,0.2,0.6,0.2,0.9,0l4.5-3.3
		l8.4,7.8h-27L13.1,965.3z"/>
</g>
</svg>
