<?xml version="1.0" encoding="utf-8"?>
<!-- Generator: Adobe Illustrator 24.1.2, SVG Export Plug-In . SVG Version: 6.00 Build 0)  -->
<svg version="1.1" id="home" xmlns="http://www.w3.org/2000/svg" xmlns:xlink="http://www.w3.org/1999/xlink" x="0px" y="0px"
	 viewBox="0 0 36 24" style="enable-background:new 0 0 36 24;" xml:space="preserve">
<style type="text/css">
	.st0{fill:#FFFFFF;}
</style>
<g>
	<path class="st0" d="M30.6,8.6L18.5,0.2c-0.3-0.2-0.7-0.2-1.1,0L5.4,8.6C5.2,8.7,5,9,5,9.2v13.9C5,23.6,5.4,24,5.9,24h24.2
		c0.5,0,0.9-0.4,0.9-0.8V9.2C31,9,30.9,8.8,30.6,8.6z M15.8,22.4v-5.8c0-1.1,1-2.1,2.2-2.1c1.2,0,2.2,0.9,2.2,2.1v5.8H15.8z
		 M29.2,22.4H22v-5.8c0-2.1-1.8-3.7-4-3.7c-2.2,0-4,1.7-4,3.7v5.8H6.8V9.7L18,1.9l11.2,7.8L29.2,22.4z"/>
</g>
</svg>
