<?xml version="1.0" encoding="utf-8"?>
<!-- Generator: Adobe Illustrator 24.1.2, SVG Export Plug-In . SVG Version: 6.00 Build 0)  -->
<svg version="1.1" id="圖層_1" xmlns="http://www.w3.org/2000/svg" xmlns:xlink="http://www.w3.org/1999/xlink" x="0px" y="0px"
	 viewBox="0 0 120 120" style="enable-background:new 0 0 120 120;" xml:space="preserve">
<style type="text/css">
	.st0{fill:#FFFFFF;}
</style>
<g>
	<g>
		<g>
			<path class="st0" d="M58.7,55.5c0,0,0.5-6.1-0.4-8.8c-0.9-2.7-3.3-5.8-6.2-7.5c-2.9-1.6-9.3-1.8-11.3,0.5c3.9,0.2,6.7,0.4,11,4.4
				C56.1,48.1,58.7,55.5,58.7,55.5z"/>
			<path class="st0" d="M52.1,49.2c0,0-2.4-4.9-5.8-6c-3.6-1.1-7-0.6-8.1-0.4c-1.1,0.2-3.6-0.2-3.6-0.2s1.8,2.9,4,3.9
				c2.2,1,6.1,0.3,7.7,0.3C48.4,46.7,52.1,49.2,52.1,49.2z"/>
			<path class="st0" d="M54.2,54.4c-4.7-4.1-9.8-4.9-14.6-5.3c-4.9-0.3-13-1.2-16.4-3.3c-2.3-1.4-4-5.4-4-8c0-3.7,2.6-5.6,4.4-5.6
				c1.8,0,4,1.6,4,2.6c-1.2-0.5-3-0.4-3.7,0.1c-1.2,0.9-1.4,2.9-0.5,4.1c0.8,1.2,2.9,2.2,5.1,1c2.2-1.2,2.4-3.7,2.3-4.9
				c0-2.1-2.2-5.7-7.3-5.9c-5.1-0.2-7.5,4.3-7.9,6.1c-0.4,1.7-2,8.9,3.3,14.8c5.3,5.9,13.1,6.2,17.8,6.2S46,56.6,51,59.8
				c5,3.2,5.2,11.6,5.2,14.5c0,2.8-0.3,9-1.9,11c-2.5,3.1-8.2,2.1-8.2-3.6c0-1.9,2.9-3.8,4.3-2.3c-1.5,0.6-1.8,4.4,1.7,3.8
				c2.3-0.4,2.7-3.1,2.1-4.5c-0.6-1.4-3.2-3.6-6.8-2.5c-3.2,1-4.9,3.9-4.7,7.1c0.3,3.2,2.9,6.1,4.7,6.8c1.7,0.8,5.3,1.4,9-1.8
				c3.7-3.2,2.9-14.4,2.8-16.2C59.1,70.6,59.1,58.7,54.2,54.4z"/>
			<path class="st0" d="M49,70.2c-1.8-0.4-6-2.7-7.7-5.5c-1.1-1.7-5.3-4-5.3-4s8.5-3.2,13.3,2.5c4.1,4.8,3.7,9.3,3.7,9.3
				S50.9,70.6,49,70.2z M48.7,66.8c0,0-0.9-1.6-2.3-2.7c-1.4-1.1-3.5-1.7-3.5-1.7s1.2,1.9,2.4,2.7C46.5,65.9,48.7,66.8,48.7,66.8z"
				/>
			<path class="st0" d="M33.6,60.9c0,0-1.6,0.2-2.7,1.4c-0.9,1.1-1,3.2-1,3.2s-3.7,2.2-4.9,5.4c-1.2,3.2-0.7,7.1-0.7,7.1
				s-1.4,2.1-4,1.4c-2.6-0.7-2.6-2.1-2.8-4.5c-2.5,4.7-0.6,11.4,5,11.6c4.7,0.2,6.7-3.4,6.8-4.9c3.4,0.8,9.4-0.6,10-4.9
				c0.4-5.4-3.5-6.4-4.9-6.4c-1.7,0-3.4,1.2-3.4,2.7c0,1.6,1.2,2.5,2.3,2.3c1.1-0.3,1.8-1.2,1.8-2.3c0.7,0.1,1.8,1.1,1.6,2.4
				c-0.2,1.3-1.8,2.9-4.2,2.8c-2.4-0.1-3.6-1.8-3.7-3.7c-0.1-2.4,1.3-5.1,5.1-5.3c3.8-0.2,5.9,2.3,6,3.1c0.1,0.8,0.8,5.5,0.8,5.5
				s2.5-2.6,4.5-3.6c2.1-1,6.2,0.2,6.3-0.3c0.1-0.5-0.9-1.3-2.4-1.3c-1.5,0-5.7-1-6.1-1.4c-0.4-0.4-1.6-3.9-4.3-5.1
				c-2.7-1.2-4.2-1-5-1.4C33,64.5,33.6,60.9,33.6,60.9z"/>
		</g>
		<g>
			<path class="st0" d="M61.3,55.5c0,0-0.5-6.1,0.4-8.8c0.9-2.7,3.3-5.8,6.2-7.5c2.9-1.6,9.3-1.8,11.3,0.5c-3.9,0.2-6.7,0.4-11,4.4
				C63.9,48.1,61.3,55.5,61.3,55.5z"/>
			<path class="st0" d="M67.9,49.2c0,0,2.4-4.9,5.8-6c3.6-1.1,7-0.6,8.1-0.4c1.1,0.2,3.6-0.2,3.6-0.2s-1.8,2.9-4,3.9
				c-2.2,1-6.1,0.3-7.7,0.3C71.6,46.7,67.9,49.2,67.9,49.2z"/>
			<path class="st0" d="M65.8,54.4c4.7-4.1,9.8-4.9,14.6-5.3c4.9-0.3,13-1.2,16.4-3.3c2.3-1.4,4-5.4,4-8c0-3.7-2.6-5.6-4.4-5.6
				c-1.8,0-4,1.6-4,2.6c1.2-0.5,3-0.4,3.7,0.1c1.2,0.9,1.4,2.9,0.5,4.1c-0.8,1.2-2.9,2.2-5.1,1c-2.2-1.2-2.4-3.7-2.3-4.9
				c0-2.1,2.2-5.7,7.3-5.9c5.1-0.2,7.5,4.3,7.9,6.1c0.4,1.7,2,8.9-3.3,14.8c-5.3,5.9-13.1,6.2-17.8,6.2S74,56.6,69,59.8
				c-5,3.2-5.2,11.6-5.2,14.5c0,2.8,0.3,9,1.9,11c2.5,3.1,8.2,2.1,8.2-3.6c0-1.9-2.9-3.8-4.3-2.3c1.5,0.6,1.8,4.4-1.7,3.8
				c-2.3-0.4-2.7-3.1-2.1-4.5c0.6-1.4,3.2-3.6,6.8-2.5c3.2,1,4.9,3.9,4.7,7.1c-0.3,3.2-2.9,6.1-4.7,6.8c-1.7,0.8-5.3,1.4-9-1.8
				C60,85.2,60.8,74,60.9,72.3C60.9,70.6,60.9,58.7,65.8,54.4z"/>
			<path class="st0" d="M67,72.4c0,0-0.4-4.5,3.7-9.3c4.8-5.7,13.3-2.5,13.3-2.5s-4.2,2.3-5.3,4c-1.7,2.8-5.9,5.1-7.7,5.5
				C69.1,70.6,67,72.4,67,72.4z M74.7,65.1c1.2-0.8,2.4-2.7,2.4-2.7S75,63,73.6,64.1c-1.4,1.1-2.3,2.7-2.3,2.7S73.5,65.9,74.7,65.1z
				"/>
			<path class="st0" d="M86.4,60.9c0,0,1.6,0.2,2.7,1.4c0.9,1.1,1,3.2,1,3.2s3.7,2.2,4.9,5.4c1.2,3.2,0.7,7.1,0.7,7.1s1.4,2.1,4,1.4
				c2.6-0.7,2.6-2.1,2.8-4.5c2.5,4.7,0.6,11.4-5,11.6c-4.7,0.2-6.7-3.4-6.8-4.9c-3.4,0.8-9.4-0.6-10-4.9c-0.4-5.4,3.5-6.4,4.9-6.4
				c1.7,0,3.4,1.2,3.4,2.7c0,1.6-1.2,2.5-2.3,2.3c-1.1-0.3-1.8-1.2-1.8-2.3c-0.7,0.1-1.8,1.1-1.6,2.4c0.2,1.3,1.8,2.9,4.2,2.8
				c2.4-0.1,3.6-1.8,3.7-3.7c0.1-2.4-1.3-5.1-5.1-5.3c-3.8-0.2-5.9,2.3-6,3.1c-0.1,0.8-0.8,5.5-0.8,5.5s-2.5-2.6-4.5-3.6
				c-2.1-1-6.2,0.2-6.3-0.3c-0.1-0.5,0.9-1.3,2.4-1.3c1.5,0,5.7-1,6.1-1.4c0.4-0.4,1.6-3.9,4.3-5.1c2.7-1.2,4.2-1,5-1.4
				C87,64.5,86.4,60.9,86.4,60.9z"/>
		</g>
	</g>
</g>
</svg>
