<?xml version="1.0" encoding="utf-8"?>
<!-- Generator: Adobe Illustrator 24.1.2, SVG Export Plug-In . SVG Version: 6.00 Build 0)  -->
<svg version="1.1" id="圖層_1" xmlns="http://www.w3.org/2000/svg" xmlns:xlink="http://www.w3.org/1999/xlink" x="0px" y="0px"
	 viewBox="0 0 283.46 283.46" style="enable-background:new 0 0 283.46 283.46;" xml:space="preserve">
<style type="text/css">
	.st0{fill:#90C3C2;}
</style>
<g>
	<g>
		<g>
			<path class="st0" d="M138.13,129.1c0,0,1.52-16.96-1.02-24.39c-2.54-7.43-9.15-16.26-17.28-20.83
				c-8.13-4.57-25.91-5.02-31.5,1.52c10.8,0.51,18.54,1.08,30.48,12.19C130.77,108.71,138.13,129.1,138.13,129.1z"/>
			<path class="st0" d="M119.72,111.57c0,0-6.68-13.74-16.19-16.77c-9.97-3.18-19.43-1.71-22.48-1.14
				c-3.05,0.57-10.1-0.57-10.1-0.57s4.95,8,11.05,10.86c6.1,2.86,16.96,0.83,21.34,0.83C109.43,104.78,119.72,111.57,119.72,111.57z
				"/>
			<path class="st0" d="M125.62,126.24c-13.08-11.45-27.28-13.75-40.58-14.67c-13.72-0.95-36.2-3.24-45.73-9.24
				c-6.32-3.98-11.05-15.15-11.05-22.39c0-10.29,7.24-15.62,12.19-15.62c4.95,0,11.05,4.38,11.05,7.24
				c-3.43-1.33-8.38-1.12-10.29,0.38c-3.3,2.6-3.81,8.19-1.52,11.43c2.29,3.24,8,6.1,14.1,2.67c6.1-3.43,6.55-10.21,6.48-13.72
				c-0.13-5.97-6.1-15.79-20.2-16.47c-14.1-0.68-20.96,12.09-22.1,16.85c-1.14,4.76-5.53,24.77,9.15,41.16
				c14.67,16.39,36.39,17.15,49.54,17.15s26.1,1.17,40.01,10.2c13.91,9.04,14.35,32.35,14.48,40.48c0.12,7.85-0.79,24.96-5.34,30.48
				c-7.05,8.57-22.86,5.72-22.86-9.91c0-5.16,7.96-10.56,12.04-6.48c-4.29,1.65-5.14,12.25,4.73,10.67
				c6.29-1.01,7.43-8.57,5.72-12.58c-1.71-4-9.02-10.03-19.05-6.86c-8.79,2.78-13.72,10.86-12.96,19.82
				c0.76,8.96,8.19,16.96,12.96,19.05c4.76,2.1,14.86,4,25.15-4.95c10.29-8.96,8.02-40.14,7.82-44.96
				C139.15,171.14,139.34,138.24,125.62,126.24z"/>
			<path class="st0" d="M111.14,170.06c-5.14-1.14-16.77-7.62-21.53-15.43c-2.94-4.83-14.67-11.24-14.67-11.24
				s23.74-8.96,37.15,6.86c11.44,13.49,10.29,25.91,10.29,25.91S116.29,171.21,111.14,170.06z M110.19,160.54
				c0,0-2.48-4.38-6.29-7.43c-3.81-3.05-9.72-4.76-9.72-4.76s3.24,5.34,6.67,7.62C104.28,158.25,110.19,160.54,110.19,160.54z"/>
			<path class="st0" d="M68.27,144.34c0,0-4.45,0.51-7.43,4c-2.57,3.01-2.86,8.96-2.86,8.96s-10.29,6.1-13.53,15.05
				c-3.24,8.96-1.9,19.82-1.9,19.82s-4,5.91-11.24,4c-7.24-1.91-7.37-5.97-7.81-12.57c-7.03,12.96-1.55,31.68,13.91,32.2
				c13.21,0.44,18.67-9.34,18.86-13.53c9.46,2.29,26.23-1.65,27.82-13.53c1.14-15.05-9.83-17.72-13.72-17.72
				c-4.76,0-9.34,3.24-9.34,7.62c0,4.38,3.24,7.05,6.29,6.29c3.05-0.76,5.14-3.43,5.14-6.48c2.03,0.27,5.14,3.05,4.57,6.67
				c-0.57,3.62-5.14,8.19-11.81,7.81c-6.67-0.38-9.92-4.95-10.19-10.19c-0.35-6.76,3.72-14.19,14.19-14.77
				c10.48-0.57,16.46,6.5,16.77,8.77c0.31,2.27,2.1,15.24,2.1,15.24s6.86-7.24,12.57-9.91c5.72-2.67,17.15,0.57,17.53-0.95
				c0.38-1.52-2.48-3.62-6.67-3.62c-4.19,0-15.81-2.67-16.96-3.81c-1.14-1.14-4.38-10.86-12-14.29c-7.62-3.43-11.81-2.86-13.91-4
				C66.56,154.25,68.27,144.34,68.27,144.34z"/>
		</g>
		<g>
			<path class="st0" d="M145.33,129.1c0,0-1.52-16.96,1.02-24.39c2.54-7.43,9.15-16.26,17.28-20.83c8.13-4.57,25.91-5.02,31.5,1.52
				c-10.8,0.51-18.54,1.08-30.49,12.19C152.7,108.71,145.33,129.1,145.33,129.1z"/>
			<path class="st0" d="M163.75,111.57c0,0,6.68-13.74,16.19-16.77c9.97-3.18,19.43-1.71,22.48-1.14c3.05,0.57,10.1-0.57,10.1-0.57
				s-4.95,8-11.05,10.86c-6.1,2.86-16.96,0.83-21.34,0.83C174.04,104.78,163.75,111.57,163.75,111.57z"/>
			<path class="st0" d="M157.84,126.24c13.08-11.45,27.28-13.75,40.58-14.67c13.72-0.95,36.2-3.24,45.73-9.24
				c6.32-3.98,11.05-15.15,11.05-22.39c0-10.29-7.24-15.62-12.2-15.62c-4.95,0-11.05,4.38-11.05,7.24
				c3.43-1.33,8.38-1.12,10.29,0.38c3.3,2.6,3.81,8.19,1.53,11.43c-2.29,3.24-8,6.1-14.1,2.67c-6.1-3.43-6.55-10.21-6.48-13.72
				c0.13-5.97,6.1-15.79,20.2-16.47c14.1-0.68,20.96,12.09,22.1,16.85c1.15,4.76,5.53,24.77-9.15,41.16
				c-14.67,16.39-36.39,17.15-49.54,17.15s-26.1,1.17-40.01,10.2c-13.91,9.04-14.35,32.35-14.48,40.48
				c-0.12,7.85,0.79,24.96,5.33,30.48c7.05,8.57,22.86,5.72,22.86-9.91c0-5.16-7.96-10.56-12.04-6.48
				c4.29,1.65,5.14,12.25-4.73,10.67c-6.29-1.01-7.43-8.57-5.72-12.58c1.72-4,9.02-10.03,19.05-6.86
				c8.79,2.78,13.72,10.86,12.96,19.82c-0.76,8.96-8.19,16.96-12.96,19.05c-4.76,2.1-14.86,4-25.15-4.95
				c-10.29-8.96-8.02-40.14-7.82-44.96C144.31,171.14,144.12,138.24,157.84,126.24z"/>
			<path class="st0" d="M161.08,176.16c0,0-1.15-12.42,10.29-25.91c13.41-15.81,37.15-6.86,37.15-6.86s-11.73,6.41-14.67,11.24
				c-4.76,7.81-16.39,14.29-21.53,15.43C167.18,171.21,161.08,176.16,161.08,176.16z M182.61,155.96c3.43-2.29,6.67-7.62,6.67-7.62
				s-5.91,1.71-9.72,4.76c-3.81,3.05-6.29,7.43-6.29,7.43S179.18,158.25,182.61,155.96z"/>
			<path class="st0" d="M215.19,144.34c0,0,4.45,0.51,7.43,4c2.57,3.01,2.86,8.96,2.86,8.96s10.29,6.1,13.53,15.05
				c3.24,8.96,1.91,19.82,1.91,19.82s4,5.91,11.24,4c7.24-1.91,7.37-5.97,7.81-12.57c7.03,12.96,1.55,31.68-13.91,32.2
				c-13.21,0.44-18.67-9.34-18.86-13.53c-9.46,2.29-26.23-1.65-27.82-13.53c-1.14-15.05,9.83-17.72,13.72-17.72
				c4.76,0,9.34,3.24,9.34,7.62c0,4.38-3.24,7.05-6.29,6.29c-3.05-0.76-5.14-3.43-5.14-6.48c-2.03,0.27-5.15,3.05-4.57,6.67
				c0.57,3.62,5.14,8.19,11.81,7.81c6.67-0.38,9.92-4.95,10.19-10.19c0.35-6.76-3.72-14.19-14.19-14.77
				c-10.48-0.57-16.45,6.5-16.77,8.77c-0.31,2.27-2.1,15.24-2.1,15.24s-6.86-7.24-12.58-9.91c-5.72-2.67-17.15,0.57-17.53-0.95
				c-0.38-1.52,2.48-3.62,6.67-3.62c4.19,0,15.82-2.67,16.96-3.81c1.14-1.14,4.38-10.86,12-14.29c7.62-3.43,11.81-2.86,13.91-4
				C216.91,154.25,215.19,144.34,215.19,144.34z"/>
		</g>
	</g>
</g>
</svg>
