<?xml version="1.0" encoding="utf-8"?>
<!-- Generator: Adobe Illustrator 24.1.2, SVG Export Plug-In . SVG Version: 6.00 Build 0)  -->
<svg version="1.1" id="圖層_1" xmlns="http://www.w3.org/2000/svg" xmlns:xlink="http://www.w3.org/1999/xlink" x="0px" y="0px"
	 viewBox="0 0 283.46 283.46" style="enable-background:new 0 0 283.46 283.46;" xml:space="preserve">
<style type="text/css">
	.st0{fill:#FFFFFF;}
</style>
<g>
	<g>
		<g>
			<path class="st0" d="M138.43,130.13c0,0,1.4-15.57-0.94-22.39s-8.4-14.93-15.86-19.12s-23.79-4.61-28.92,1.4
				c9.91,0.47,17.02,0.99,27.98,11.19C131.66,111.42,138.43,130.13,138.43,130.13z"/>
			<path class="st0" d="M121.51,114.04c0,0-6.13-12.61-14.86-15.4c-9.15-2.92-17.84-1.57-20.64-1.05c-2.8,0.52-9.27-0.52-9.27-0.52
				s4.54,7.34,10.14,9.97c5.6,2.63,15.57,0.76,19.59,0.76C112.07,107.81,121.51,114.04,121.51,114.04z"/>
			<path class="st0" d="M126.94,127.51c-12.01-10.51-25.04-12.62-37.25-13.47c-12.6-0.87-33.23-2.97-41.98-8.48
				C41.9,101.9,37.56,91.65,37.56,85c0-9.45,6.65-14.34,11.19-14.34s10.14,4.02,10.14,6.65c-3.15-1.22-7.69-1.03-9.45,0.35
				c-3.03,2.39-3.5,7.52-1.4,10.49c2.1,2.97,7.34,5.6,12.94,2.45s6.01-9.37,5.95-12.6c-0.12-5.48-5.6-14.5-18.54-15.12
				s-19.24,11.1-20.29,15.47c-1.05,4.37-5.08,22.74,8.4,37.79c13.47,15.05,33.41,15.74,45.48,15.74s23.96,1.07,36.73,9.36
				c12.77,8.3,13.17,29.7,13.29,37.16c0.11,7.21-0.73,22.91-4.89,27.98c-6.47,7.87-20.99,5.25-20.99-9.1
				c0-4.74,7.31-9.69,11.05-5.95c-3.94,1.51-4.72,11.25,4.34,9.8c5.77-0.93,6.82-7.87,5.25-11.55c-1.57-3.67-8.28-9.21-17.49-6.3
				c-8.07,2.55-12.6,9.97-11.9,18.2c0.7,8.23,7.52,15.57,11.9,17.49c4.37,1.93,13.64,3.67,23.09-4.54
				c9.45-8.23,7.36-36.85,7.18-41.28C139.36,168.73,139.54,138.53,126.94,127.51z"/>
			<path class="st0" d="M113.65,167.75c-4.72-1.05-15.4-7-19.77-14.17c-2.7-4.43-13.47-10.32-13.47-10.32s21.79-8.23,34.11,6.3
				c10.5,12.38,9.45,23.79,9.45,23.79S118.37,168.79,113.65,167.75z M112.77,159c0,0-2.28-4.02-5.77-6.82s-8.92-4.37-8.92-4.37
				s2.97,4.9,6.12,7C107.35,156.9,112.77,159,112.77,159z"/>
			<path class="st0" d="M74.29,144.13c0,0-4.09,0.47-6.82,3.67c-2.36,2.76-2.63,8.23-2.63,8.23s-9.45,5.6-12.42,13.82
				c-2.97,8.23-1.74,18.2-1.74,18.2s-3.67,5.43-10.32,3.67c-6.65-1.75-6.77-5.48-7.17-11.54c-6.45,11.9-1.42,29.08,12.77,29.56
				c12.13,0.4,17.14-8.57,17.31-12.42c8.68,2.1,24.08-1.51,25.54-12.42c1.05-13.82-9.02-16.27-12.6-16.27c-4.37,0-8.57,2.97-8.57,7
				c0,4.02,2.97,6.47,5.77,5.77c2.8-0.7,4.72-3.15,4.72-5.95c1.86,0.25,4.72,2.8,4.2,6.12c-0.52,3.32-4.72,7.52-10.84,7.17
				s-9.11-4.54-9.35-9.35c-0.32-6.21,3.42-13.03,13.03-13.56c9.62-0.52,15.11,5.97,15.4,8.05c0.28,2.08,1.93,13.99,1.93,13.99
				s6.3-6.65,11.54-9.1c5.25-2.45,15.74,0.52,16.09-0.87c0.35-1.4-2.28-3.32-6.12-3.32s-14.51-2.45-15.57-3.5
				c-1.05-1.05-4.02-9.97-11.02-13.12s-10.84-2.63-12.77-3.67C72.72,153.22,74.29,144.13,74.29,144.13z"/>
		</g>
		<g>
			<path class="st0" d="M145.04,130.13c0,0-1.4-15.57,0.94-22.39s8.4-14.93,15.86-19.12s23.79-4.61,28.92,1.4
				c-9.91,0.47-17.02,0.99-27.99,11.19C151.79,111.42,145.04,130.13,145.04,130.13z"/>
			<path class="st0" d="M161.94,114.04c0,0,6.13-12.61,14.86-15.4c9.15-2.92,17.84-1.57,20.64-1.05c2.8,0.52,9.27-0.52,9.27-0.52
				s-4.54,7.34-10.14,9.97c-5.6,2.63-15.57,0.76-19.59,0.76C171.38,107.81,161.94,114.04,161.94,114.04z"/>
			<path class="st0" d="M156.52,127.51c12.01-10.51,25.04-12.62,37.25-13.47c12.6-0.87,33.23-2.97,41.98-8.48
				c5.8-3.65,10.14-13.91,10.14-20.56c0-9.45-6.65-14.34-11.2-14.34c-4.54,0-10.14,4.02-10.14,6.65c3.15-1.22,7.69-1.03,9.45,0.35
				c3.03,2.39,3.5,7.52,1.4,10.49c-2.1,2.97-7.34,5.6-12.94,2.45c-5.6-3.15-6.01-9.37-5.95-12.6c0.12-5.48,5.6-14.5,18.54-15.12
				c12.94-0.62,19.24,11.1,20.29,15.47c1.06,4.37,5.08,22.74-8.4,37.79c-13.47,15.05-33.41,15.74-45.48,15.74
				s-23.96,1.07-36.73,9.36c-12.77,8.3-13.17,29.7-13.29,37.16c-0.11,7.21,0.73,22.91,4.89,27.98c6.47,7.87,20.99,5.25,20.99-9.1
				c0-4.74-7.31-9.69-11.05-5.95c3.94,1.51,4.72,11.25-4.34,9.8c-5.77-0.93-6.82-7.87-5.25-11.55c1.58-3.67,8.28-9.21,17.49-6.3
				c8.07,2.55,12.6,9.97,11.9,18.2c-0.7,8.23-7.52,15.57-11.9,17.49c-4.37,1.93-13.64,3.67-23.09-4.54
				c-9.45-8.23-7.36-36.85-7.18-41.28C144.1,168.73,143.92,138.53,156.52,127.51z"/>
			<path class="st0" d="M159.49,173.34c0,0-1.06-11.4,9.45-23.79c12.31-14.51,34.11-6.3,34.11-6.3s-10.77,5.88-13.47,10.32
				c-4.37,7.17-15.05,13.12-19.77,14.17C165.09,168.79,159.49,173.34,159.49,173.34z M179.26,154.79c3.15-2.1,6.12-7,6.12-7
				s-5.43,1.57-8.92,4.37c-3.5,2.8-5.77,6.82-5.77,6.82S176.11,156.9,179.26,154.79z"/>
			<path class="st0" d="M209.17,144.13c0,0,4.09,0.47,6.82,3.67c2.36,2.76,2.63,8.23,2.63,8.23s9.45,5.6,12.42,13.82
				c2.97,8.23,1.75,18.2,1.75,18.2s3.67,5.43,10.32,3.67c6.65-1.75,6.77-5.48,7.17-11.54c6.45,11.9,1.42,29.08-12.77,29.56
				c-12.13,0.4-17.14-8.57-17.31-12.42c-8.68,2.1-24.08-1.51-25.54-12.42c-1.05-13.82,9.02-16.27,12.6-16.27
				c4.37,0,8.57,2.97,8.57,7c0,4.02-2.97,6.47-5.77,5.77c-2.8-0.7-4.72-3.15-4.72-5.95c-1.86,0.25-4.73,2.8-4.2,6.12
				c0.52,3.32,4.72,7.52,10.84,7.17c6.12-0.35,9.11-4.54,9.35-9.35c0.32-6.21-3.42-13.03-13.03-13.56
				c-9.62-0.52-15.1,5.97-15.4,8.05c-0.28,2.08-1.93,13.99-1.93,13.99s-6.3-6.65-11.55-9.1s-15.74,0.52-16.09-0.87
				s2.28-3.32,6.12-3.32s14.52-2.45,15.57-3.5c1.05-1.05,4.02-9.97,11.02-13.12c7-3.15,10.84-2.63,12.77-3.67
				C210.74,153.22,209.17,144.13,209.17,144.13z"/>
		</g>
	</g>
</g>
</svg>
